<svg xmlns="http://www.w3.org/2000/svg" viewBox="0 0 800 600"><defs><style>.cls-1{fill:#fff;}.cls-2{fill:#c8e0cc;}.cls-3,.cls-5{fill:#edf1c6;}.cls-19,.cls-21,.cls-27,.cls-3,.cls-5{stroke:#010101;}.cls-13,.cls-14,.cls-19,.cls-21,.cls-27,.cls-3,.cls-5,.cls-7{stroke-miterlimit:10;}.cls-3{stroke-width:0.5px;}.cls-4{fill:#c9e8fb;}.cls-6{fill:#f8bfad;}.cls-14,.cls-27,.cls-7{fill:none;}.cls-13,.cls-7{stroke:#17af95;}.cls-28,.cls-8{font-size:18px;}.cls-8{fill:#17af95;}.cls-15,.cls-20,.cls-23,.cls-8{font-family:AtkinsonHyperlegible-Regular, Atkinson Hyperlegible;}.cls-9{letter-spacing:-0.01em;}.cls-10{letter-spacing:0em;}.cls-11{letter-spacing:-0.02em;}.cls-12{letter-spacing:-0.03em;}.cls-13{fill:#bbded3;}.cls-14{stroke:#a7aaa0;}.cls-15{font-size:36px;}.cls-15,.cls-20,.cls-25{fill:#1d1d1b;}.cls-16{letter-spacing:-0.01em;}.cls-17{letter-spacing:0.04em;}.cls-18{letter-spacing:-0.01em;}.cls-19{fill:#f4f3c3;}.cls-20,.cls-23{font-size:24px;}.cls-21{fill:#d4b0d4;}.cls-22{letter-spacing:0em;}.cls-23{fill:#010101;}.cls-24{letter-spacing:-0.01em;}.cls-26{letter-spacing:0.03em;}.cls-28{fill:#a7aaa0;font-family:AtkinsonHyperlegible-Bold, Atkinson Hyperlegible;font-weight:700;}.cls-29{letter-spacing:-0.01em;}.cls-30{letter-spacing:-0.01em;}</style></defs><g id="Layer_2" data-name="Layer 2"><rect class="cls-1" width="800" height="600"/></g><g id="Layer_1" data-name="Layer 1"><rect class="cls-2" x="100" y="400" width="600" height="100"/><path class="cls-3" d="M185,454.26l1.54-4.26H180v-1h6.49L185,444.75a30.31,30.31,0,0,0,8.55,4.75A30.1,30.1,0,0,0,185,454.26Z"/><path class="cls-3" d="M258.45,454.76,260,450.5H253.5v-1H260l-1.54-4.25A30.31,30.31,0,0,0,267,450,30.1,30.1,0,0,0,258.45,454.76Z"/><path class="cls-3" d="M331.45,454.76,333,450.5H326.5v-1H333l-1.54-4.25A30.31,30.31,0,0,0,340,450,30.1,30.1,0,0,0,331.45,454.76Z"/><path class="cls-3" d="M405.45,454.76,407,450.5H400.5v-1H407l-1.54-4.25A30.31,30.31,0,0,0,414,450,30.1,30.1,0,0,0,405.45,454.76Z"/><path class="cls-3" d="M478.45,454.76,480,450.5H473.5v-1H480l-1.54-4.25A30.31,30.31,0,0,0,487,450,30.1,30.1,0,0,0,478.45,454.76Z"/><path class="cls-3" d="M551.45,454.76,553,450.5H546.5v-1H553l-1.54-4.25A30.31,30.31,0,0,0,560,450,30.1,30.1,0,0,0,551.45,454.76Z"/><rect class="cls-4" x="100" y="100" width="600" height="100"/><path class="cls-5" d="M249.91,158.51,253,150H240v-2h13l-3.08-8.51c4.36,3.81,11.41,7.4,17.09,9.51C261.32,151.11,254.27,154.7,249.91,158.51Z"/><path class="cls-5" d="M396.41,159l3.08-8.51h-13v-2h13L396.41,140c4.36,3.81,11.41,7.4,17.09,9.51C407.82,151.61,400.77,155.2,396.41,159Z"/><path class="cls-5" d="M543.41,159l3.08-8.51h-13v-2h13L543.41,140c4.36,3.81,11.41,7.4,17.09,9.51C554.82,151.61,547.77,155.2,543.41,159Z"/><rect class="cls-6" x="100" y="224" width="600" height="150"/><path class="cls-7" d="M465.5,283.5c1.71,1.86,12.07,12.79,29,13,17.51.22,28.34-11.2,30-13"/><text class="cls-8" transform="translate(241.13 305)">Co<tspan class="cls-9" x="21.74" y="0">n</tspan><tspan class="cls-10" x="31.34" y="0">tinuity </tspan><tspan class="cls-11" x="85.25" y="0">L</tspan><tspan x="94.61" y="0">inks</tspan></text><text class="cls-8" transform="translate(496.45 314)"><tspan class="cls-12">P</tspan><tspan x="10.31" y="0">age </tspan><tspan class="cls-11" x="44.6" y="0">L</tspan><tspan x="53.96" y="0">inks</tspan></text><line class="cls-13" x1="209.5" y1="283.5" x2="209.5" y2="313.5"/><line class="cls-13" x1="399.5" y1="283.5" x2="399.5" y2="313.5"/><line class="cls-14" x1="213.5" y1="419.5" x2="192" y2="344"/><line class="cls-14" x1="340" y1="344" x2="233.5" y2="419.5"/><line class="cls-14" x1="286.5" y1="419.5" x2="228" y2="344"/><line class="cls-14" x1="306.5" y1="419.5" x2="370" y2="344"/><line class="cls-14" x1="620" y1="419.5" x2="460" y2="344"/><line class="cls-14" x1="453.5" y1="419.5" x2="400" y2="344"/><line class="cls-14" x1="516.5" y1="419.5" x2="430" y2="344"/><line class="cls-14" x1="433.5" y1="419.5" x2="264" y2="344"/><line class="cls-14" x1="156" y1="344" x2="150" y2="419.5"/><line class="cls-14" x1="160" y1="179.5" x2="156" y2="254"/><line class="cls-14" x1="200" y1="179.5" x2="346" y2="254"/><line class="cls-14" x1="296.5" y1="179.5" x2="192" y2="254"/><line class="cls-14" x1="326.5" y1="179.5" x2="382" y2="254"/><line class="cls-14" x1="356.5" y1="179.5" x2="560" y2="254"/><line class="cls-14" x1="443.5" y1="179.5" x2="228" y2="254"/><line class="cls-14" x1="473.5" y1="179.5" x2="418.5" y2="254.5"/><line class="cls-14" x1="640" y1="179.5" x2="454" y2="254"/><line class="cls-14" x1="599.5" y1="179.5" x2="264" y2="254"/><line class="cls-14" x1="504" y1="179.5" x2="620" y2="253.5"/><text class="cls-15" transform="translate(99.81 85.96)">Book Co<tspan class="cls-16" x="133.23" y="0">n</tspan><tspan x="152.42" y="0">tinuity</tspan></text><text class="cls-15" transform="translate(99.81 535.02)"><tspan class="cls-17">T</tspan><tspan x="21.46" y="0">V + Movie Co</tspan><tspan class="cls-18" x="232.74" y="0">n</tspan><tspan x="251.92" y="0">tinuity</tspan></text><rect class="cls-19" x="266.67" y="119.5" width="120" height="60"/><rect class="cls-19" x="413.33" y="119.5" width="120" height="60"/><rect class="cls-19" x="560" y="119.5" width="120" height="60"/><rect class="cls-19" x="120" y="119.5" width="120" height="60"/><text class="cls-20" transform="translate(135.89 142.1)">Release:<tspan x="9.37" y="28.8">Book 1</tspan></text><rect class="cls-21" x="120" y="254" width="180" height="30"/><text class="cls-20" transform="translate(145.65 276)"><tspan class="cls-12">P</tspan><tspan x="13.75" y="0">age: Johan</tspan></text><rect class="cls-21" x="120" y="314" width="180" height="30"/><text class="cls-20" transform="translate(151.96 336)"><tspan class="cls-12">P</tspan><tspan x="13.75" y="0">age: John</tspan></text><rect class="cls-21" x="310" y="254" width="180" height="30"/><text class="cls-20" transform="translate(332.97 276)"><tspan class="cls-12">P</tspan><tspan x="13.75" y="0">age: </tspan><tspan class="cls-12" x="64.39" y="0">P</tspan><tspan class="cls-22" x="78.14" y="0">alace</tspan></text><rect class="cls-21" x="310" y="314" width="180" height="30"/><text class="cls-20" transform="translate(332.97 336)"><tspan class="cls-12">P</tspan><tspan x="13.75" y="0">age: </tspan><tspan class="cls-12" x="64.39" y="0">P</tspan><tspan class="cls-22" x="78.14" y="0">alace</tspan></text><rect class="cls-21" x="500" y="254" width="180" height="30"/><text class="cls-23" transform="translate(514.73 276)"><tspan class="cls-12">P</tspan><tspan x="13.75" y="0">age: T</tspan><tspan class="cls-24" x="77.78" y="0">h</tspan><tspan x="90.62" y="0">e </tspan><tspan class="cls-12" x="110.28" y="0">W</tspan><tspan x="129.77" y="0">ar</tspan></text><text class="cls-20" transform="translate(282.56 142.1)">Release:<tspan x="7.61" y="28.8">Book 2</tspan></text><text class="cls-20" transform="translate(429.22 142.1)">Release:<tspan x="7.31" y="28.8">Book 3</tspan></text><path class="cls-25" d="M577.71,142.1v-16h5.09c3.91,0,6.67.77,6.67,4.61,0,2.19-.72,4-4.44,4.51l5,6.92h-2.76l-4.87-6.75H580v6.75ZM580,128v5.5h3c2.35,0,4.2-.27,4.2-2.74S585.32,128,583,128Z"/><path class="cls-25" d="M591.63,136.17c0-3.77,2.52-6.17,5.79-6.17,3.79,0,5.78,3.29,5.54,6.7h-9.17a3.65,3.65,0,0,0,3.68,3.91,3.28,3.28,0,0,0,2.78-1.18l1.94.58a5.32,5.32,0,0,1-4.72,2.37C593.72,142.38,591.63,139.67,591.63,136.17Zm2.19-1.08h7a3.51,3.51,0,0,0-7,0Z"/><path class="cls-25" d="M605.34,126.09h2v12.69c0,1.23.1,1.54,1.23,1.54H609v1.78h-.89c-2.27,0-2.8-.51-2.8-3Z"/><path class="cls-25" d="M610.3,136.17c0-3.77,2.52-6.17,5.79-6.17,3.79,0,5.78,3.29,5.54,6.7h-9.17a3.65,3.65,0,0,0,3.68,3.91,3.28,3.28,0,0,0,2.78-1.18l2,.58a5.35,5.35,0,0,1-4.73,2.37C612.39,142.38,610.3,139.67,610.3,136.17Zm2.19-1.08h7a3.51,3.51,0,0,0-7,0Z"/><path class="cls-25" d="M623.24,139c0-2.83,3.17-3.65,8-4.2.07-2-.77-3.14-2.69-3.14a2.43,2.43,0,0,0-2.64,1.85l-1.94-.58a4.57,4.57,0,0,1,4.56-2.88c3.29,0,4.7,1.49,4.73,4.82l0,2.79a24.9,24.9,0,0,0,.41,4.49h-1.85l-.48-1.64c-.72,1.2-2,1.92-4,1.92C625.09,142.38,623.24,141.14,623.24,139Zm2.23,0c0,1.13.87,1.88,2.31,1.88a3.33,3.33,0,0,0,3.67-3.68v-.74C627.8,136.74,625.47,137.27,625.47,138.9Z"/><path class="cls-25" d="M637.64,138.69a2.91,2.91,0,0,0,3.05,2c1.42,0,2.81-.7,2.81-1.78,0-3.26-7.56-.86-7.56-5.61,0-2.14,2.28-3.32,4.58-3.32A4.65,4.65,0,0,1,645,132.4l-1.89.69a2.85,2.85,0,0,0-2.71-1.41c-1.23,0-2.4.55-2.4,1.58,0,2.88,7.56.51,7.56,5.57,0,2.26-2.38,3.55-4.85,3.55a5.12,5.12,0,0,1-5-3Z"/><path class="cls-25" d="M647.17,136.17c0-3.77,2.52-6.17,5.78-6.17,3.79,0,5.79,3.29,5.55,6.7h-9.17a3.65,3.65,0,0,0,3.67,3.91,3.31,3.31,0,0,0,2.79-1.18l1.94.58a5.34,5.34,0,0,1-4.73,2.37C649.26,142.38,647.17,139.67,647.17,136.17Zm2.18-1.08h7a3.51,3.51,0,0,0-7,0Z"/><path class="cls-25" d="M660.1,131.54a1.55,1.55,0,1,1,1.54,1.55A1.55,1.55,0,0,1,660.1,131.54Zm1.54,7.75a1.55,1.55,0,1,1-1.54,1.56A1.56,1.56,0,0,1,661.64,139.29Z"/><path class="cls-25" d="M584.54,154.86H591c3.48,0,5,1.95,5,4a4.73,4.73,0,0,1-1.68,3.53,4.37,4.37,0,0,1,2.37,3.91c0,2.3-1.77,4.61-5.28,4.61h-6.84Zm2.26,1.9v5h4.44a2.36,2.36,0,0,0,2.45-2.45,2.41,2.41,0,0,0-2.45-2.52Zm0,12.24h4.82a2.66,2.66,0,0,0,2.71-2.78,2.61,2.61,0,0,0-2.73-2.72h-4.8Z"/><path class="cls-25" d="M604.2,158.8c2.76,0,5.71,1.9,5.71,6.19s-2.95,6.19-5.71,6.19-5.72-1.89-5.72-6.19S601.46,158.8,604.2,158.8Zm0,10.61c1.73,0,3.55-1.35,3.55-4.42s-1.82-4.41-3.55-4.41-3.56,1.34-3.56,4.41S602.49,169.41,604.2,169.41Z"/><path class="cls-25" d="M617.45,158.8c2.76,0,5.71,1.9,5.71,6.19s-2.95,6.19-5.71,6.19-5.72-1.89-5.72-6.19S614.71,158.8,617.45,158.8Zm0,10.61c1.72,0,3.55-1.35,3.55-4.42s-1.83-4.41-3.55-4.41-3.56,1.34-3.56,4.41S615.74,169.41,617.45,169.41Z"/><path class="cls-25" d="M627.76,154.86v9.48l4.8-5.35H635l-4.49,4.92,5.09,7h-2.47l-4-5.5-1.4,1.51v4h-2v-16Z"/><path class="cls-25" d="M643.46,165l7.94-10.18h2V165h2.93v1.9h-2.93v4h-2v-4h-8Zm8,0v-7.42L645.64,165Z"/><rect class="cls-19" x="120" y="419.5" width="60" height="60"/><text class="cls-20" transform="translate(127.92 442.1)">Re<tspan class="cls-26" x="27.77" y="0">l</tspan><tspan class="cls-22" x="34.32" y="0">.:</tspan><tspan x="-1.82" y="28.8">ep. 1</tspan></text><rect class="cls-19" x="193.33" y="419.5" width="60" height="60"/><text class="cls-20" transform="translate(201.25 442.1)">Re<tspan class="cls-26" x="27.77" y="0">l</tspan><tspan class="cls-22" x="34.32" y="0">.:</tspan><tspan x="-3.59" y="28.8">ep. 2</tspan></text><rect class="cls-19" x="266.67" y="419.5" width="60" height="60"/><text class="cls-20" transform="translate(274.59 442.1)">Re<tspan class="cls-26" x="27.77" y="0">l</tspan><tspan class="cls-22" x="34.32" y="0">.:</tspan><tspan x="-3.89" y="28.8">ep. 3</tspan></text><rect class="cls-19" x="340" y="419.5" width="60" height="60"/><text class="cls-20" transform="translate(347.92 442.1)">Re<tspan class="cls-26" x="27.77" y="0">l</tspan><tspan class="cls-22" x="34.32" y="0">.:</tspan><tspan x="-4.37" y="28.8">ep. 4</tspan></text><rect class="cls-19" x="413.33" y="419.5" width="60" height="60"/><path class="cls-25" d="M423.08,442.1v-16h5.09c3.91,0,6.67.77,6.67,4.61,0,2.19-.72,4-4.44,4.51l5,6.92h-2.76l-4.88-6.75h-2.4v6.75ZM425.33,428v5.5h3c2.36,0,4.21-.27,4.21-2.74s-1.85-2.76-4.21-2.76Z"/><path class="cls-25" d="M437,436.17c0-3.77,2.52-6.17,5.78-6.17,3.8,0,5.79,3.29,5.55,6.7h-9.17a3.65,3.65,0,0,0,3.67,3.91,3.31,3.31,0,0,0,2.79-1.18l1.94.58a5.34,5.34,0,0,1-4.73,2.37C439.09,442.38,437,439.67,437,436.17Zm2.18-1.08h7a3.51,3.51,0,0,0-7,0Z"/><path class="cls-25" d="M450.7,426.09h2v12.69c0,1.23.09,1.54,1.22,1.54h.46v1.78h-.89c-2.28,0-2.81-.51-2.81-3Z"/><path class="cls-25" d="M458,439.29a1.55,1.55,0,1,1-1.53,1.56A1.55,1.55,0,0,1,458,439.29Z"/><path class="cls-25" d="M461.41,431.54a1.55,1.55,0,1,1,1.53,1.55A1.55,1.55,0,0,1,461.41,431.54Zm1.53,7.75a1.55,1.55,0,1,1-1.53,1.56A1.55,1.55,0,0,1,462.94,439.29Z"/><path class="cls-25" d="M418.17,465c0-3.77,2.52-6.17,5.79-6.17,3.79,0,5.78,3.29,5.54,6.7h-9.17a3.65,3.65,0,0,0,3.67,3.91,3.3,3.3,0,0,0,2.79-1.18l1.94.58a5.34,5.34,0,0,1-4.73,2.37C420.26,471.18,418.17,468.47,418.17,465Zm2.18-1.08h7a3.51,3.51,0,0,0-7,0Z"/><path class="cls-25" d="M433.34,459l.55,1.87a4.19,4.19,0,0,1,3.86-2.06c2.72,0,5.12,2.25,5.12,6.19s-2.4,6.19-5.12,6.19a4.15,4.15,0,0,1-3.86-2.08v5.66h-2V459Zm3.89,10.47c2,0,3.38-1.64,3.38-4.47s-1.34-4.46-3.38-4.46-3.39,1.63-3.39,4.46S435.19,469.46,437.23,469.46Z"/><path class="cls-25" d="M446.23,468.09a1.55,1.55,0,1,1-1.54,1.56A1.56,1.56,0,0,1,446.23,468.09Z"/><path class="cls-25" d="M458.68,466.7a3.27,3.27,0,0,0,3.55,2.8,3.85,3.85,0,0,0,0-7.68,3.36,3.36,0,0,0-3.1,1.78l-2-.58,1-8.16h9.19v1.95h-7.56l-.55,4.48a5,5,0,0,1,3.46-1.2,5.17,5.17,0,0,1,5.25,5.53,5.36,5.36,0,0,1-5.69,5.56c-3.24,0-4.92-1.75-5.52-3.91Z"/><rect class="cls-19" x="486.67" y="419.5" width="60" height="60"/><path class="cls-25" d="M496.41,442.1v-16h5.09c3.91,0,6.67.77,6.67,4.61,0,2.19-.72,4-4.44,4.51l5,6.92h-2.76l-4.87-6.75h-2.4v6.75ZM498.67,428v5.5h3c2.35,0,4.2-.27,4.2-2.74S504,428,501.67,428Z"/><path class="cls-25" d="M510.33,436.17c0-3.77,2.52-6.17,5.79-6.17,3.79,0,5.78,3.29,5.54,6.7h-9.17a3.65,3.65,0,0,0,3.67,3.91,3.29,3.29,0,0,0,2.79-1.18l1.94.58a5.33,5.33,0,0,1-4.73,2.37C512.42,442.38,510.33,439.67,510.33,436.17Zm2.19-1.08h7a3.5,3.5,0,0,0-7,0Z"/><path class="cls-25" d="M524,426.09h2v12.69c0,1.23.1,1.54,1.23,1.54h.45v1.78h-.89c-2.28,0-2.8-.51-2.8-3Z"/><path class="cls-25" d="M531.35,439.29a1.55,1.55,0,1,1,0,3.09,1.55,1.55,0,0,1,0-3.09Z"/><path class="cls-25" d="M534.74,431.54a1.55,1.55,0,1,1,1.53,1.55A1.55,1.55,0,0,1,534.74,431.54Zm1.53,7.75a1.55,1.55,0,1,1-1.53,1.56A1.55,1.55,0,0,1,536.27,439.29Z"/><path class="cls-25" d="M491.32,465c0-3.77,2.52-6.17,5.79-6.17,3.79,0,5.78,3.29,5.54,6.7h-9.17a3.65,3.65,0,0,0,3.68,3.91,3.28,3.28,0,0,0,2.78-1.18l1.94.58a5.32,5.32,0,0,1-4.72,2.37C493.41,471.18,491.32,468.47,491.32,465Zm2.19-1.08h7a3.51,3.51,0,0,0-7,0Z"/><path class="cls-25" d="M506.49,459l.55,1.87a4.21,4.21,0,0,1,3.87-2.06c2.71,0,5.11,2.25,5.11,6.19s-2.4,6.19-5.11,6.19A4.16,4.16,0,0,1,507,469.1v5.66h-2V459Zm3.89,10.47c2,0,3.38-1.64,3.38-4.47s-1.34-4.46-3.38-4.46S507,462.16,507,465,508.34,469.46,510.38,469.46Z"/><path class="cls-25" d="M519.38,468.09a1.55,1.55,0,1,1-1.54,1.56A1.56,1.56,0,0,1,519.38,468.09Z"/><path class="cls-25" d="M530,463.46c0-4.54,1.61-8.89,6.27-8.89a4.67,4.67,0,0,1,4.51,2.57l-2,.6a2.88,2.88,0,0,0-2.71-1.49c-2.5,0-3.84,2.48-3.94,6.2a4.6,4.6,0,0,1,4.22-2.24,5.11,5.11,0,0,1,5.16,5.45,5.42,5.42,0,0,1-5.64,5.52C531.83,471.18,530,468.4,530,463.46Zm5.83,6a3.75,3.75,0,1,0-3.5-3.74A3.42,3.42,0,0,0,535.84,469.48Z"/><rect class="cls-19" x="560" y="419.5" width="120" height="60"/><path class="cls-25" d="M577.71,442.1v-16h5.09c3.91,0,6.67.77,6.67,4.61,0,2.19-.72,4-4.44,4.51l5,6.92h-2.76l-4.87-6.75H580v6.75ZM580,428v5.5h3c2.35,0,4.2-.27,4.2-2.74S585.32,428,583,428Z"/><path class="cls-25" d="M591.63,436.17c0-3.77,2.52-6.17,5.79-6.17,3.79,0,5.78,3.29,5.54,6.7h-9.17a3.65,3.65,0,0,0,3.68,3.91,3.28,3.28,0,0,0,2.78-1.18l1.94.58a5.32,5.32,0,0,1-4.72,2.37C593.72,442.38,591.63,439.67,591.63,436.17Zm2.19-1.08h7a3.51,3.51,0,0,0-7,0Z"/><path class="cls-25" d="M605.34,426.09h2v12.69c0,1.23.1,1.54,1.23,1.54H609v1.78h-.89c-2.27,0-2.8-.51-2.8-3Z"/><path class="cls-25" d="M610.3,436.17c0-3.77,2.52-6.17,5.79-6.17,3.79,0,5.78,3.29,5.54,6.7h-9.17a3.65,3.65,0,0,0,3.68,3.91,3.28,3.28,0,0,0,2.78-1.18l2,.58a5.35,5.35,0,0,1-4.73,2.37C612.39,442.38,610.3,439.67,610.3,436.17Zm2.19-1.08h7a3.51,3.51,0,0,0-7,0Z"/><path class="cls-25" d="M623.24,439c0-2.83,3.17-3.65,8-4.2.07-2-.77-3.14-2.69-3.14a2.43,2.43,0,0,0-2.64,1.85l-1.94-.58a4.57,4.57,0,0,1,4.56-2.88c3.29,0,4.7,1.49,4.73,4.82l0,2.79a24.9,24.9,0,0,0,.41,4.49h-1.85l-.48-1.64c-.72,1.2-2,1.92-4,1.92C625.09,442.38,623.24,441.14,623.24,439Zm2.23-.05c0,1.13.87,1.88,2.31,1.88a3.33,3.33,0,0,0,3.67-3.68v-.74C627.8,436.74,625.47,437.27,625.47,438.9Z"/><path class="cls-25" d="M637.64,438.69a2.91,2.91,0,0,0,3.05,2c1.42,0,2.81-.7,2.81-1.78,0-3.26-7.56-.86-7.56-5.61,0-2.14,2.28-3.32,4.58-3.32A4.65,4.65,0,0,1,645,432.4l-1.89.69a2.85,2.85,0,0,0-2.71-1.41c-1.23,0-2.4.55-2.4,1.58,0,2.88,7.56.51,7.56,5.57,0,2.26-2.38,3.55-4.85,3.55a5.12,5.12,0,0,1-5-3Z"/><path class="cls-25" d="M647.17,436.17c0-3.77,2.52-6.17,5.78-6.17,3.79,0,5.79,3.29,5.55,6.7h-9.17a3.65,3.65,0,0,0,3.67,3.91,3.31,3.31,0,0,0,2.79-1.18l1.94.58a5.34,5.34,0,0,1-4.73,2.37C649.26,442.38,647.17,439.67,647.17,436.17Zm2.18-1.08h7a3.51,3.51,0,0,0-7,0Z"/><path class="cls-25" d="M660.1,431.54a1.55,1.55,0,1,1,1.54,1.55A1.55,1.55,0,0,1,660.1,431.54Zm1.54,7.75a1.55,1.55,0,1,1-1.54,1.56A1.56,1.56,0,0,1,661.64,439.29Z"/><path class="cls-25" d="M594,454.86,598.28,468l4.27-13.11h3.75v16H604V457.21l-4.63,13.69h-2.23l-4.66-13.69V470.9h-2.26v-16Z"/><path class="cls-25" d="M614.74,458.8c2.76,0,5.72,1.9,5.72,6.19s-3,6.19-5.72,6.19S609,469.29,609,465,612,458.8,614.74,458.8Zm0,10.61c1.73,0,3.56-1.35,3.56-4.42s-1.83-4.41-3.56-4.41-3.55,1.34-3.55,4.41S613,469.41,614.74,469.41Z"/><path class="cls-25" d="M621.37,459h2.18l3.12,9.27,3.1-9.27H632L627.7,470.9h-2.08Z"/><path class="cls-25" d="M636.7,459V470.9h-2V460.6H633V459Zm-2.49-3.77a1.5,1.5,0,1,1,1.49,1.51A1.5,1.5,0,0,1,634.21,455.22Z"/><path class="cls-25" d="M639.54,465c0-3.77,2.52-6.17,5.78-6.17,3.79,0,5.78,3.29,5.55,6.7H641.7a3.64,3.64,0,0,0,3.67,3.91,3.28,3.28,0,0,0,2.78-1.18l2,.58a5.35,5.35,0,0,1-4.73,2.37C641.62,471.18,639.54,468.47,639.54,465Zm2.18-1.08h7a3.51,3.51,0,0,0-7,0Z"/><text/><path class="cls-25" d="M277,385.36v8.3h-1.3l-.6-2c-1,1.63-2.9,2.29-5.06,2.29-4.11,0-6.65-2.73-7.15-6.77a8.26,8.26,0,0,1-.08-1,5,5,0,0,1,0-.55c0-5,2.93-8.28,7.46-8.28a6.51,6.51,0,0,1,6.1,3.63l-2,.71a4.46,4.46,0,0,0-4.23-2.44c-2.83,0-5,2.2-5,6.38,0,.19,0,.37,0,.55a7.84,7.84,0,0,0,.11,1c.45,3.08,2.35,4.89,4.92,4.89,2.14,0,4.73-.89,4.73-4.2v-.53h-4.68v-2Z"/><path class="cls-25" d="M286.66,381.55v2.1c-2.32,0-3.54.87-4.05,2.51a4.91,4.91,0,0,0-.21,1,9.79,9.79,0,0,0-.09,1.38v5.12h-2V381.74h1.46l.65,2.22A4.71,4.71,0,0,1,286.66,381.55Z"/><path class="cls-25" d="M299.09,387.16a7.35,7.35,0,0,0-.13-1,5.66,5.66,0,0,0-11.12,0,7.35,7.35,0,0,0-.13,1c0,.19,0,.39,0,.58,0,4.31,3,6.19,5.71,6.19s5.71-1.88,5.71-6.19C299.11,387.55,299.1,387.35,299.09,387.16Zm-5.69,5c-1.7,0-3.55-1.35-3.55-4.43,0-.19,0-.39,0-.58a6,6,0,0,1,.17-1,3.41,3.41,0,0,1,6.72,0,6,6,0,0,1,.17,1c0,.19,0,.39,0,.58C297,390.82,295.13,392.17,293.4,392.17Z"/><path class="cls-25" d="M311.21,381.73v11.93H309.7l-.51-1.74a3.91,3.91,0,0,1-3.72,2c-2.78,0-3.81-1.88-3.81-4.59v-7.61h2v7c0,1.85.31,3.44,2.5,3.44,1.89,0,3-1.35,3-3.89v-6.55Z"/><path class="cls-25" d="M325.54,387.16a6.05,6.05,0,0,0-.13-1c-.55-3-2.64-4.61-5-4.61a4.2,4.2,0,0,0-3.87,2.06l-.55-1.87h-1.46v15.78h2v-5.66a4.19,4.19,0,0,0,3.87,2.07c2.71,0,5.11-2.27,5.11-6.19C325.56,387.55,325.55,387.35,325.54,387.16Zm-5.62,5c-2,0-3.38-1.63-3.38-4.47a5.63,5.63,0,0,1,0-.58,6,6,0,0,1,.14-1,3.24,3.24,0,0,1,6.43,0,6,6,0,0,1,.14,1,5.63,5.63,0,0,1,0,.58C323.31,390.58,322,392.21,319.92,392.21Z"/><path class="cls-25" d="M328.92,390.85a1.54,1.54,0,1,0,1.56,1.56A1.55,1.55,0,0,0,328.92,390.85Zm0-9.3a1.55,1.55,0,1,0,1.56,1.55A1.55,1.55,0,0,0,328.92,381.55Z"/><path class="cls-25" d="M351.46,389.29c0,3-3.1,4.64-6.24,4.64-2.64,0-5.31-1.2-6.15-3.78l2.09-.62c.55,1.73,2.4,2.52,4.15,2.52,1.92,0,3.77-.94,3.77-2.87a2.1,2.1,0,0,0-1.52-2,12.85,12.85,0,0,0-2.58-.75c-.35-.08-.71-.15-1.08-.25-2.26-.55-4.68-1.5-4.68-4.54,0-2.7,2.92-4.29,5.88-4.29a6,6,0,0,1,5.57,3l-2.07.6a4.08,4.08,0,0,0-3.6-1.7c-1.75,0-3.46.82-3.46,2.5s1.95,2.2,4.13,2.66a9.87,9.87,0,0,1,4.46,1.77,3.52,3.52,0,0,1,.83,1A4.25,4.25,0,0,1,351.46,389.29Z"/><path class="cls-25" d="M364.66,387.16a5.48,5.48,0,0,0-.15-1,5.41,5.41,0,0,0-5.4-4.61,5.57,5.57,0,0,0-5.62,4.61,6,6,0,0,0-.14,1c0,.18,0,.37,0,.57,0,3.5,2.09,6.2,5.83,6.2a5.35,5.35,0,0,0,4.73-2.36l-1.95-.59a3.26,3.26,0,0,1-2.78,1.19,3.65,3.65,0,0,1-3.67-3.91h9.17A6.73,6.73,0,0,0,364.66,387.16Zm-9.15-.51a3.86,3.86,0,0,1,.06-.49,3.51,3.51,0,0,1,6.9,0,2.63,2.63,0,0,1,0,.49Z"/><path class="cls-25" d="M373.39,381.55v2.1c-2.32,0-3.53.87-4,2.51a4.91,4.91,0,0,0-.21,1,9.79,9.79,0,0,0-.09,1.38v5.12h-2V381.74h1.47l.64,2.22A4.71,4.71,0,0,1,373.39,381.55Z"/><path class="cls-25" d="M377.26,376.48a1.51,1.51,0,0,0-1.49,1.5,1.5,1.5,0,1,0,3,0A1.51,1.51,0,0,0,377.26,376.48Z"/><polygon class="cls-25" points="378.26 381.75 378.26 393.65 376.25 393.65 376.25 383.36 374.59 383.36 374.59 381.75 378.26 381.75"/><path class="cls-25" d="M392.42,387.16a5.48,5.48,0,0,0-.15-1,5.39,5.39,0,0,0-5.39-4.61,5.57,5.57,0,0,0-5.62,4.61,6,6,0,0,0-.14,1c0,.18,0,.37,0,.57,0,3.5,2.08,6.2,5.83,6.2a5.35,5.35,0,0,0,4.73-2.36l-2-.59a3.26,3.26,0,0,1-2.78,1.19,3.64,3.64,0,0,1-3.67-3.91h9.16A6.73,6.73,0,0,0,392.42,387.16Zm-9.14-.51c0-.17,0-.33.06-.49a3.51,3.51,0,0,1,6.9,0,2.63,2.63,0,0,1,.05.49Z"/><path class="cls-25" d="M403.7,390.39c0,2.26-2.37,3.54-4.84,3.54a5.13,5.13,0,0,1-5-3l1.95-.73a2.9,2.9,0,0,0,3.05,2c1.41,0,2.8-.69,2.8-1.77,0-2.5-4.45-1.67-6.52-3.3a2.52,2.52,0,0,1-.79-1,3.22,3.22,0,0,1-.25-1.31c0-2.14,2.28-3.31,4.59-3.31a4.65,4.65,0,0,1,4.46,2.42l-1.89.69a2.89,2.89,0,0,0-2.72-1.42c-1.22,0-2.4.56-2.4,1.59a1.42,1.42,0,0,0,1.09,1.34c1,.42,2.69.51,4,1A3.15,3.15,0,0,1,403.7,390.39Z"/><line class="cls-27" x1="260" y1="386.75" x2="120" y2="386.75"/><line class="cls-27" x1="546.67" y1="387.25" x2="406.67" y2="387.25"/><text class="cls-28" transform="translate(588.43 392.25)">S<tspan class="cls-29" x="11.14" y="0">h</tspan><tspan class="cls-10" x="21.29" y="0">ow W</tspan><tspan class="cls-30" x="66.28" y="0">h</tspan><tspan x="76.43" y="0">en Seen</tspan></text><text class="cls-28" transform="translate(588.07 217.25)">S<tspan class="cls-29" x="11.14" y="0">h</tspan><tspan class="cls-10" x="21.29" y="0">ow W</tspan><tspan class="cls-30" x="66.28" y="0">h</tspan><tspan x="76.43" y="0">en Read</tspan></text></g></svg>