<svg id="Layer_1" data-name="Layer 1" xmlns="http://www.w3.org/2000/svg" viewBox="0 0 512 512"><defs><style>.cls-1{fill:#ffa07a}.cls-2{fill:salmon}</style></defs><path class="cls-1" d="M127.75 351.75c-22.56 0-42-4.71-57.7-14a77.45 77.45 0 0 1-33.67-39.9 5 5 0 0 1 3-6.49l43.2-15.6a5 5 0 0 1 4 .25 5.06 5.06 0 0 1 2.53 3.09c5.7 20.3 24.35 24.56 39 24.56 5.13 0 30.7-.77 30.7-16 0-6-3.37-14.62-32.55-20.29l-24.32-4.81C59.41 254.37 37 233.17 37 201.25c0-21.42 10.28-39.18 29.72-51.38 15.93-10 37.87-15.72 60.18-15.72 17.91 0 34.55 3.7 48.12 10.72 15.7 8.11 26.91 20.18 33.31 35.89a5 5 0 0 1-.05 3.91 5 5 0 0 1-2.87 2.68L162.46 203a5.09 5.09 0 0 1-1.71.3 5 5 0 0 1-4.64-3.15c-4.61-11.51-16.49-17.85-33.46-17.85-13.49 0-27.1 4.39-27.1 14.2 0 7.4 7 13.19 18.76 15.49l27 5.4c16.36 3.34 35 7.64 49.79 16.69 17.41 10.68 26.23 26.29 26.23 46.42.02 46.26-46.14 71.25-89.58 71.25Z"/><path class="cls-2" d="M126.85 139.15c32.4 0 64.2 12.6 76.8 43.5l-42.9 15.6c-5.4-13.5-19.2-21-38.1-21-18.3 0-32.1 6.9-32.1 19.2 0 10.2 9 17.7 22.8 20.4l27 5.4c32.4 6.6 72 16.8 72 58.2 0 42.6-43.2 66.3-84.6 66.3-43.8 0-74.4-18.6-86.7-50.7l43.2-15.6c5.4 19.2 21.6 28.2 43.8 28.2 17.1 0 35.7-5.4 35.7-21 0-14.1-15-21-36.6-25.2l-24.3-4.8c-32.7-6.3-60.9-22.2-60.9-56.4 0-42.9 44.7-62.1 84.9-62.1m0-10C103.28 129.15 81 135 64 145.64a70.24 70.24 0 0 0-23 22.57 62 62 0 0 0-9.1 33c0 19 7.37 34.64 21.89 46.43 11.49 9.32 27.34 16 47.12 19.79l24.26 4.79c18.94 3.68 28.53 8.86 28.53 15.39 0 8.68-16.15 11-25.7 11-18.77 0-30.27-7-34.17-20.91a10 10 0 0 0-9.63-7.29 10.16 10.16 0 0 0-3.39.59l-43.2 15.6a10 10 0 0 0-5.95 13 82.4 82.4 0 0 0 35.84 42.45c16.52 9.75 36.79 14.7 60.25 14.7 23.27 0 46.44-6.93 63.59-19 20-14.09 31-34.44 31-57.3 0-22-9.63-39-28.62-50.68-15.46-9.47-34.63-13.91-51.38-17.32l-27-5.41c-7.15-1.4-14.76-4.91-14.76-10.59 0-5.25 9.5-9.2 22.1-9.2 8.57 0 23.7 1.91 28.82 14.71a10 10 0 0 0 12.7 5.69l42.9-15.6a10 10 0 0 0 5.84-13.18c-6.77-16.6-19.09-29.9-35.64-38.45-14.29-7.37-31.72-11.27-50.42-11.27Z"/><path class="cls-1" d="M376.45 348.15a5 5 0 0 1-4.89-3.94l-25.68-118.38-25.44 118.37a5 5 0 0 1-4.89 3.95h-50.7a5 5 0 0 1-4.86-3.83l-48.3-200.4a5 5 0 0 1 4.86-6.17H264a5 5 0 0 1 4.9 4L292 256.9l24.38-115.19a5 5 0 0 1 4.89-4h49.2a5 5 0 0 1 4.89 3.95L400 257l23.15-115.26a5 5 0 0 1 4.9-4h47.4a5 5 0 0 1 4.86 6.17L432 344.32a5 5 0 0 1-4.86 3.83Z"/><path class="cls-2" d="m475.45 142.75-48.3 200.4h-50.7l-30.6-141-30.3 141h-50.7l-48.3-200.4H264l27.9 138.9 29.4-138.9h49.2l29.7 138.9 27.9-138.9h47.4m0-10h-47.45a10 10 0 0 0-9.8 8l-18.4 91.61-19.62-91.73a10 10 0 0 0-9.78-7.91h-49.2a10 10 0 0 0-9.78 7.93l-19.36 91.47-18.36-91.37a10 10 0 0 0-9.8-8h-47.4a10 10 0 0 0-9.72 12.34l48.3 200.4a10 10 0 0 0 9.72 7.66h50.7a10 10 0 0 0 9.78-7.9l20.57-95.73 20.78 95.75a10 10 0 0 0 9.77 7.88h50.7a10 10 0 0 0 9.72-7.66l48.23-200.1a10 10 0 0 0-9.64-12.64Zm0 20Z"/></svg>